<?xml version="1.0" standalone="no"?>
<!DOCTYPE svg PUBLIC "-//W3C//DTD SVG 20010904//EN"
 "http://www.w3.org/TR/2001/REC-SVG-20010904/DTD/svg10.dtd">
<svg version="1.0" xmlns="http://www.w3.org/2000/svg"
 width="50.000000pt" height="50.000000pt" viewBox="0 0 50.000000 50.000000"
 preserveAspectRatio="xMidYMid meet">

<g transform="translate(0.000000,50.000000) scale(0.100000,-0.100000)"
fill="#000000" stroke="none">
<path d="M182 439 c-47 -14 -109 -80 -122 -131 -28 -101 27 -214 118 -242 18
-6 22 -4 22 12 0 13 -9 21 -29 25 -15 3 -31 14 -35 24 -3 10 -9 25 -12 33 -4
9 4 5 18 -7 30 -28 50 -29 72 -4 17 18 16 19 -12 26 -58 12 -73 49 -57 135 11
61 12 62 36 49 29 -15 119 -17 149 -2 29 15 42 1 34 -33 -3 -12 -1 -25 5 -28
6 -4 11 -23 11 -42 0 -38 -25 -70 -64 -80 -23 -5 -23 -7 -10 -32 8 -15 14 -37
14 -49 0 -34 25 -28 68 15 90 90 77 239 -28 308 -43 29 -125 39 -178 23z"/>
</g>
</svg>
