<?xml version="1.0" standalone="no"?>
<!DOCTYPE svg PUBLIC "-//W3C//DTD SVG 20010904//EN"
 "http://www.w3.org/TR/2001/REC-SVG-20010904/DTD/svg10.dtd">
<svg version="1.0" xmlns="http://www.w3.org/2000/svg"
 width="50.000000pt" height="50.000000pt" viewBox="0 0 50.000000 50.000000"
 preserveAspectRatio="xMidYMid meet">

<g transform="translate(0.000000,50.000000) scale(0.100000,-0.100000)"
fill="#000000" stroke="none">
<path d="M118 424 c-46 -24 -58 -61 -58 -174 0 -163 27 -190 190 -190 161 0
190 29 190 190 0 164 -27 190 -192 190 -71 -1 -111 -5 -130 -16z m271 -60 c-9
-11 -15 -12 -25 -3 -11 9 -12 15 -3 25 9 11 15 12 25 3 11 -9 12 -15 3 -25z
m-68 -43 c64 -65 20 -171 -71 -171 -91 0 -135 106 -71 171 41 41 101 41 142 0z"/>
<path d="M207 292 c-36 -40 -9 -102 45 -102 51 0 78 69 40 103 -24 22 -65 21
-85 -1z"/>
</g>
</svg>
