<?xml version="1.0" standalone="no"?>
<!DOCTYPE svg PUBLIC "-//W3C//DTD SVG 20010904//EN"
 "http://www.w3.org/TR/2001/REC-SVG-20010904/DTD/svg10.dtd">
<svg version="1.0" xmlns="http://www.w3.org/2000/svg"
 width="50.000000pt" height="50.000000pt" viewBox="0 0 50.000000 50.000000"
 preserveAspectRatio="xMidYMid meet">

<g transform="translate(0.000000,50.000000) scale(0.100000,-0.100000)"
fill="#000000" stroke="none">
<path d="M201 476 c-87 -48 -50 -186 49 -186 51 0 100 49 100 99 0 75 -83 124
-149 87z m59 -35 c0 -5 -9 -11 -21 -14 -11 -3 -23 -15 -26 -26 -3 -12 -9 -21
-14 -21 -16 0 -9 30 11 50 20 20 50 27 50 11z"/>
<path d="M220 170 c0 -90 12 -150 30 -150 18 0 30 60 30 150 l0 100 -30 0 -30
0 0 -100z"/>
</g>
</svg>
