<?xml version="1.0" standalone="no"?>
<!DOCTYPE svg PUBLIC "-//W3C//DTD SVG 20010904//EN"
 "http://www.w3.org/TR/2001/REC-SVG-20010904/DTD/svg10.dtd">
<svg version="1.0" xmlns="http://www.w3.org/2000/svg"
 width="50.000000pt" height="50.000000pt" viewBox="0 0 50.000000 50.000000"
 preserveAspectRatio="xMidYMid meet">

<g transform="translate(0.000000,50.000000) scale(0.100000,-0.100000)"
fill="#000000" stroke="none">
<path d="M353 485 c-48 -20 -58 -73 -22 -119 41 -52 123 -21 123 47 0 62 -46
95 -101 72z"/>
<path d="M120 260 c52 -49 102 -89 111 -90 26 0 30 12 9 27 -43 30 -13 98 51
118 16 5 18 10 8 21 -9 11 -42 14 -143 14 l-131 0 95 -90z"/>
<path d="M0 186 l0 -136 235 0 235 0 0 65 0 65 -81 0 c-72 0 -84 -3 -111 -25
-16 -14 -36 -25 -43 -25 -16 0 -97 64 -145 115 -19 20 -47 46 -62 57 l-28 19
0 -135z"/>
<path d="M279 268 c-54 -33 -33 -43 99 -46 l122 -3 0 25 c0 31 -19 38 -113 41
-60 1 -84 -3 -108 -17z"/>
</g>
</svg>
