<?xml version="1.0" standalone="no"?>
<!DOCTYPE svg PUBLIC "-//W3C//DTD SVG 20010904//EN"
 "http://www.w3.org/TR/2001/REC-SVG-20010904/DTD/svg10.dtd">
<svg version="1.0" xmlns="http://www.w3.org/2000/svg"
 width="50.000000pt" height="50.000000pt" viewBox="0 0 50.000000 50.000000"
 preserveAspectRatio="xMidYMid meet">

<g transform="translate(0.000000,50.000000) scale(0.100000,-0.100000)"
fill="#000000" stroke="none">
<path d="M305 420 c-30 -12 -55 -43 -57 -73 -1 -16 -8 -27 -17 -27 -35 0 -94
26 -131 57 l-39 34 -7 -26 c-4 -15 -1 -38 7 -53 7 -15 15 -30 17 -35 2 -4 -3
-4 -12 -1 -27 10 -19 -25 13 -57 21 -20 25 -29 14 -29 -13 0 -13 -2 -2 -17 8
-9 28 -24 44 -35 17 -10 28 -18 25 -18 -3 0 -30 -9 -60 -19 l-55 -18 40 -13
c133 -45 275 22 320 151 8 23 15 53 15 67 0 14 10 37 23 50 l22 24 -25 -7 -25
-8 20 23 20 23 -28 -7 c-16 -4 -34 -3 -40 2 -19 15 -60 21 -82 12z"/>
</g>
</svg>
